<svg xmlns="http://www.w3.org/2000/svg" width="58" height="56" viewBox="0 0 58 56">
    <g fill="#8E8E8E" fill-rule="nonzero">
        <path d="M52.202 25.021H14.26a.99.99 0 0 1-.71-.299.93.93 0 0 1-.256-.706c.743-10.125 9.5-18.059 19.935-18.059 10.432 0 19.189 7.93 19.935 18.057a.923.923 0 0 1-.255.708.978.978 0 0 1-.707.3zm-36.874-1.88h35.807c-1.158-8.66-8.829-15.305-17.906-15.305-9.077 0-16.751 6.644-17.901 15.306zM15.835 51.234h-5.086c-.597 0-1.082-.432-1.082-.966v-15.94c0-.534.485-.966 1.082-.966h5.086c.6 0 1.082.432 1.082.966v15.94c-.001.534-.482.966-1.082.966zm-4.005-1.931h2.923v-14.01H11.83v14.01z"/>
        <path d="M9.889 56H.986A.984.984 0 0 1 0 55.02V34.341c0-.54.443-.98.986-.98H9.89c.547 0 .986.44.986.98V55.02c0 .54-.439.98-.986.98zm-7.915-1.96h6.928V35.322H1.974v18.72zM34.048 39.32h-.02c-.546-.011-.98-.393-.972-.856.04-1.686-.19-1.697-2.405-1.809-1.473-.075-3.487-.177-5.92-1.019-5.129-1.778-8.495 1.067-8.53 1.097-.38.33-1.007.339-1.403.012-.39-.323-.4-.853-.015-1.186.175-.15 4.347-3.677 10.7-1.477 2.127.738 3.877.826 5.288.897 2.235.114 4.346.22 4.269 3.518-.013.456-.454.822-.992.822z"/>
        <path d="M22.78 50.043c-2.336 0-4.866-.223-7.51-.785-.518-.113-.856-.644-.75-1.19.107-.546.619-.898 1.132-.786 11.36 2.422 20.702-1.92 20.796-1.964 5.363-3.349 10.156-7.48 9.965-8.615-.694-.905-5.21 1.25-9.461 4.544a.93.93 0 0 1-.57.198H24.45c-.533 0-.961-.451-.961-1.008 0-.557.428-1.008.961-1.008h11.616c2.517-1.921 9.604-6.904 11.848-3.974.36.465.492 1.048.382 1.68-.57 3.343-9.233 8.892-10.962 9.968-.387.188-6.303 2.937-14.554 2.94zM53.123 29.787H13.338c-.4 0-.76-.258-.91-.65l-1.48-3.877a1.085 1.085 0 0 1 .095-.97.972.972 0 0 1 .814-.46H54.6c.326 0 .634.173.814.46.184.285.22.649.1.97l-1.48 3.878a.988.988 0 0 1-.911.65zm-39.121-2.079h38.457l.687-1.799h-39.83l.686 1.8z"/>
        <path d="M57.024 29.787H9.434c-.542 0-.976-.532-.976-1.192 0-.658.435-1.19.976-1.19h47.59c.541 0 .976.533.976 1.19 0 .66-.436 1.192-.976 1.192zM33.833 8.34c-.665 0-1.208-.485-1.208-1.086V3.468c0-.6.543-1.085 1.208-1.085.671 0 1.209.486 1.209 1.085v3.786c-.001.601-.539 1.086-1.209 1.086z"/>
        <path d="M33.229 5.957c-1.664 0-3.02-1.335-3.02-2.978 0-1.643 1.356-2.979 3.02-2.979 1.669 0 3.021 1.336 3.021 2.979s-1.353 2.978-3.021 2.978zm0-3.989a1.02 1.02 0 0 0-1.025 1.01c0 .559.46 1.012 1.025 1.012a1.02 1.02 0 0 0 1.025-1.011c0-.557-.46-1.01-1.025-1.01zM4.835 41.702c-1.332 0-2.418-1.07-2.418-2.384 0-1.313 1.087-2.382 2.418-2.382 1.332 0 2.415 1.069 2.415 2.382 0 1.314-1.083 2.384-2.415 2.384zm0-2.86a.483.483 0 0 0-.487.475c0 .525.97.53.97 0a.482.482 0 0 0-.483-.476z"/>
    </g>
</svg>
