<svg xmlns="http://www.w3.org/2000/svg" width="49" height="52" viewBox="0 0 49 52">
    <path fill="#8E8E8E" fill-rule="nonzero" d="M11.965 37.539a1.25 1.25 0 0 1-1.662.61l-5.545-2.61a1.267 1.267 0 0 1-.605-1.677 1.246 1.246 0 0 1 1.662-.611l5.545 2.61c.626.295.897 1.046.605 1.678zM9.286 14.808h.244v8.965c0 .697.56 1.263 1.25 1.263.692 0 1.252-.566 1.252-1.263v-8.965h12.467c4.045 0 7.336-3.322 7.336-7.404 0-.697-.56-1.262-1.25-1.262-.691 0-1.251.565-1.251 1.262 0 2.69-2.169 4.88-4.835 4.88H9.286c-2.665 0-4.834-2.19-4.834-4.88s2.169-4.88 4.834-4.88h7.044a7.294 7.294 0 0 0-1.8 4.805c0 .697.56 1.262 1.25 1.262s1.25-.565 1.25-1.262c0-2.65 2.17-4.804 4.835-4.804h17.847c2.666 0 4.834 2.188 4.834 4.879 0 2.69-2.168 4.88-4.834 4.88h-6.085c-.69 0-1.25.564-1.25 1.261 0 .698.56 1.263 1.25 1.263h3.34v8.965c0 .697.56 1.263 1.25 1.263.691 0 1.251-.566 1.251-1.263v-8.965h.244c4.045 0 7.336-3.322 7.336-7.404C47.048 3.321 43.757 0 39.712 0H9.286C5.241 0 1.95 3.321 1.95 7.404c0 4.082 3.291 7.404 7.336 7.404zM44.39 32.412a1.246 1.246 0 0 0-1.648.646c-.191.438-.468.744-.824.912l-3.06 1.44c-.352.166-.76.184-1.21.054a1.25 1.25 0 0 0-1.546.868c-.19.67.195 1.369.86 1.56.422.122.843.182 1.255.182.593 0 1.166-.125 1.698-.376l3.06-1.44c.908-.427 1.62-1.182 2.056-2.182a1.267 1.267 0 0 0-.64-1.664zm-31.553.255l-5.546-2.61a1.246 1.246 0 0 0-1.662.611 1.267 1.267 0 0 0 .605 1.678l5.546 2.61a1.25 1.25 0 0 0 1.662-.61 1.267 1.267 0 0 0-.605-1.679zm35.767 2.993a6.48 6.48 0 0 1-3.349 3.697l-4.459 2.098a6.387 6.387 0 0 1-4.958.213 6.46 6.46 0 0 1-3.026-2.287l-4.92 2.316 16.122 7.588c.626.294.897 1.045.605 1.677a1.25 1.25 0 0 1-1.662.61L24.931 43.09 6.977 51.54a1.246 1.246 0 0 1-1.662-.61 1.267 1.267 0 0 1 .605-1.678l16.051-7.554-4.85-2.283a6.459 6.459 0 0 1-3.025 2.288 6.389 6.389 0 0 1-4.958-.213l-7.03-3.308C.283 37.32-.509 35.125.342 33.283l2.397-5.19a3.64 3.64 0 0 1 2.062-1.902 3.596 3.596 0 0 1 2.791.12l7.03 3.308a6.48 6.48 0 0 1 3.348 3.698 6.57 6.57 0 0 1 .209 3.809l6.752 3.178 6.823-3.212c-.73-2.976.703-6.163 3.557-7.506l4.459-2.099c3.242-1.526 7.11-.105 8.622 3.167.73 1.58.805 3.358.211 5.006zM15.62 34.18a3.98 3.98 0 0 0-2.056-2.272l-7.03-3.309a1.131 1.131 0 0 0-.878-.036c-.29.107-.52.32-.65.598L2.61 34.35a1.167 1.167 0 0 0 .556 1.543l7.03 3.308c.96.452 2.041.497 3.046.128a3.971 3.971 0 0 0 2.252-2.074c.447-.969.492-2.061.127-3.075zm30.505-2.459c-.929-2.01-3.305-2.884-5.298-1.946l-4.458 2.099c-1.937.911-2.808 3.204-2.002 5.178.033.05.137.276.154.334a3.97 3.97 0 0 0 2.171 1.91 3.924 3.924 0 0 0 3.046-.129l4.459-2.099a3.98 3.98 0 0 0 2.056-2.272 4.029 4.029 0 0 0-.128-3.075z"/>
</svg>
