<svg xmlns="http://www.w3.org/2000/svg" width="45" height="57" viewBox="0 0 45 57">
    <g fill="#8E8E8E" fill-rule="nonzero" stroke="#8E8E8E" stroke-width="1.2">
        <path d="M23.694 56c-9.724 0-12.945-2.65-13.077-2.762l-.206-.175v-.272c0-30.186-3.318-44.07-3.352-44.206l-.087-.358.28-.233C8.94 6.59 16.059 3.743 16.36 3.622l.577-.23.186.597c.039.12 1.013 2.996 5.032 2.996.05.001.547.038 1.217-.038l.13 1.16c-.787.09-1.369.045-1.393.043h-.003c-3.676 0-5.27-2.174-5.83-3.238-2.154.876-6.48 2.727-8.009 3.773.527 2.425 3.28 16.408 3.3 43.802.82.53 4.214 2.346 12.127 2.346V56z"/>
        <path d="M21.306 56v-1.167c7.906 0 11.3-1.812 12.127-2.345.02-27.395 2.772-41.377 3.3-43.802-1.53-1.046-5.856-2.898-8.008-3.774-.563 1.064-2.166 3.24-5.88 3.24V6.985c4.054 0 5.024-2.966 5.033-2.996l.186-.598.576.23c.302.122 7.42 2.969 9.107 4.373l.28.233-.087.357c-.034.137-3.352 14.02-3.352 44.207v.272l-.205.175C34.25 53.35 31.03 56 21.306 56zM7.99 41.652c-3.468 0-6.397-.912-6.548-.96l-.39-.124-.015-.404C.465 24.558 6.653 9.519 6.716 9.37l1.08.438c-.06.147-6.045 14.697-5.605 29.897 1.164.313 4.733 1.144 8.188.624l.177 1.14c-.867.13-1.733.183-2.567.183z"/>
        <path d="M7.096 36.87c-3.228 0-5.944-1.084-6.096-1.146l.44-1.246c.045.019 4.685 1.863 8.78.63l.336 1.282c-1.158.349-2.34.48-3.46.48zM37.01 41.652c-.834 0-1.7-.053-2.566-.183l.176-1.14c3.456.52 7.026-.31 8.19-.624.44-15.2-5.545-29.75-5.606-29.896l1.08-.44c.063.15 6.252 15.19 5.678 30.795l-.014.404-.39.124c-.152.048-3.08.96-6.547.96z"/>
        <path d="M37.904 36.87c-1.12 0-2.302-.131-3.46-.48l.336-1.282c4.104 1.235 8.734-.61 8.78-.63l.44 1.246c-.153.062-2.869 1.146-6.096 1.146zM18.917 14.152a1.196 1.196 0 0 1 0-2.391 1.196 1.196 0 0 1 0 2.391zm0-1.366a.17.17 0 0 0-.171.17c0 .188.341.188.341 0a.171.171 0 0 0-.17-.17zM26.083 14.152a1.196 1.196 0 0 1 0-2.391 1.196 1.196 0 0 1 0 2.391zm0-1.366a.171.171 0 0 0-.17.17c0 .188.341.188.341 0a.17.17 0 0 0-.17-.17zM18.917 22.522a1.196 1.196 0 0 1 0-2.392 1.196 1.196 0 0 1 0 2.392zm0-1.367a.17.17 0 0 0-.171.171c0 .188.341.188.341 0a.17.17 0 0 0-.17-.17zM26.083 22.522a1.196 1.196 0 0 1 0-2.392 1.196 1.196 0 0 1 0 2.392zm0-1.367a.171.171 0 0 0-.17.171c0 .188.341.188.341 0a.17.17 0 0 0-.17-.17zM18.917 32.087a1.196 1.196 0 0 1 0-2.391 1.196 1.196 0 0 1 0 2.391zm0-1.367a.17.17 0 0 0-.171.171c0 .188.341.188.341 0a.17.17 0 0 0-.17-.17zM26.083 32.087a1.196 1.196 0 0 1 0-2.391 1.196 1.196 0 0 1 0 2.391zm0-1.367a.171.171 0 0 0-.17.171c0 .188.341.188.341 0a.17.17 0 0 0-.17-.17zM18.917 41.652a1.196 1.196 0 0 1 0-2.391 1.196 1.196 0 0 1 0 2.391zm0-1.366a.17.17 0 0 0-.171.17c0 .188.341.188.341 0a.17.17 0 0 0-.17-.17zM26.083 41.652a1.196 1.196 0 0 1 0-2.391 1.196 1.196 0 0 1 0 2.391zm0-1.366a.171.171 0 0 0-.17.17c0 .188.341.188.341 0a.17.17 0 0 0-.17-.17zM18.917 50.022a1.196 1.196 0 0 1 0-2.392 1.196 1.196 0 0 1 0 2.392zm0-1.367a.17.17 0 0 0-.171.171c0 .188.341.188.341 0a.171.171 0 0 0-.17-.17zM26.083 50.022a1.196 1.196 0 0 1 0-2.392 1.196 1.196 0 0 1 0 2.392zm0-1.367a.171.171 0 0 0-.17.171c0 .188.341.188.341 0a.17.17 0 0 0-.17-.17zM15.45 4.587c-.035-.082-.329-.82.175-1.642C16.415 1.655 18.729 1 22.5 1v1.235c-4.552 0-5.634.964-5.888 1.379-.156.254-.093.46-.092.462l-1.07.511z"/>
        <path d="M29.55 4.587l-1.077-.492c.009-.024.076-.24-.103-.509-.27-.406-1.382-1.351-5.87-1.351V1c3.771 0 6.084.655 6.875 1.946.504.822.21 1.56.174 1.641z"/>
    </g>
</svg>
