<svg width="64" height="64" xmlns="http://www.w3.org/2000/svg">

 <title/>
 <g>
  <title>background</title>
  <rect fill="none" id="canvas_background" height="402" width="582" y="-1" x="-1"/>
 </g>
 <g>
  <title stroke="#1abaf4">Layer 1</title>
  <path stroke-width="2px" stroke-linejoin="round" stroke="#1abaf4" fill="none" id="svg_1" d="m22,23l-21,0l0,6l4,0l0,32a2,2 0 0 0 2,2l50,0a2,2 0 0 0 2,-2l0,-27" class="cls-1"/>
  <path stroke-width="2px" stroke-linejoin="round" stroke="#1abaf4" fill="none" id="svg_2" d="m30,34l0,24a1,1 0 0 0 1,1l2,0a1,1 0 0 0 1,-1l0,-24" class="cls-1"/>
  <path stroke-width="2px" stroke-linejoin="round" stroke="#1abaf4" fill="none" id="svg_3" d="m40,42l0,16a1,1 0 0 0 1,1l2,0a1,1 0 0 0 1,-1l0,-19" class="cls-1"/>
  <path stroke-width="2px" stroke-linejoin="round" stroke="#1abaf4" fill="none" id="svg_4" d="m50,34l0,24a1,1 0 0 0 1,1l2,0a1,1 0 0 0 1,-1l0,-24" class="cls-1"/>
  <rect stroke-width="2px" stroke-linejoin="round" stroke="#1abaf4" fill="none" id="svg_5" y="33" x="20" width="4" ry="1" rx="1" height="26" class="cls-1"/>
  <rect stroke-width="2px" stroke-linejoin="round" stroke="#1abaf4" fill="none" id="svg_6" y="33" x="10" width="4" ry="1" rx="1" height="26" class="cls-1"/>
  <line stroke-width="2px" stroke-linejoin="round" stroke="#1abaf4" fill="none" id="svg_7" y2="29" y1="29" x2="22" x1="5" class="cls-1"/>
  <path stroke-width="2px" stroke-linejoin="round" stroke="#1abaf4" fill="none" id="svg_8" d="m54,5l-20,0l0,6l4,0l0,9a1,1 0 0 0 1,1l10,0a1,1 0 0 0 1,-1l0,-9l4,0l0,-6z" class="cls-1"/>
  <line stroke-width="2px" stroke-linejoin="round" stroke="#1abaf4" fill="none" id="svg_9" y2="13" y1="13" x2="50" x1="38" class="cls-1"/>
  <line stroke-width="2px" stroke-linejoin="round" stroke="#1abaf4" fill="none" id="svg_10" y2="17" y1="17" x2="50" x1="38" class="cls-1"/>
  <path stroke-width="2px" stroke-linejoin="round" stroke="#1abaf4" fill="none" id="svg_11" d="m47,5a3,3 0 0 1 -6,0" class="cls-1"/>
  <path stroke-width="2px" stroke-linejoin="round" stroke="#1abaf4" fill="none" id="svg_12" d="m61,1l-34,0a2,2 0 0 0 -2,2l0,26a2,2 0 0 0 2,2l12,0l0,8l8,-8l14,0a2,2 0 0 0 2,-2l0,-26a2,2 0 0 0 -2,-2z" class="cls-1"/>
  <line stroke-width="2px" stroke-linejoin="round" stroke="#1abaf4" fill="none" id="svg_13" y2="25" y1="25" x2="64" x1="25" class="cls-1"/>
  <polyline stroke-width="2px" stroke-linejoin="round" stroke="#1abaf4" fill="none" id="svg_14" points="29 17 29 21 33 21" class="cls-1"/>
  <path stroke-width="2px" stroke-linejoin="round" stroke="#1abaf4" fill="none" id="svg_15" d="m22,16c-2.5,0 -2.5,-2 -5,-2s-2.5,2 -5,2s-2.5,-2 -5,-2" class="cls-1"/>
  <path stroke-width="2px" stroke-linejoin="round" stroke="#1abaf4" fill="none" id="svg_16" d="m18,8c-2.5,0 -2.5,2 -5,2s-2.5,-2 -5,-2" class="cls-1"/>
  <line stroke-width="2px" stroke-linejoin="round" stroke="#1abaf4" fill="none" id="svg_17" y2="14" y1="14" x2="5" x1="3" class="cls-1"/>
  <line stroke-width="2px" stroke-linejoin="round" stroke="#1abaf4" fill="none" id="svg_18" y2="8" y1="8" x2="6" x1="4" class="cls-1"/>
 </g>
</svg>