<svg width="64" height="64" xmlns="http://www.w3.org/2000/svg">

 <title/>
 <g>
  <title>background</title>
  <rect fill="none" id="canvas_background" height="402" width="582" y="-1" x="-1"/>
 </g>
 <g>
  <title stroke="#f4402c">Layer 1</title>
  <rect stroke-width="2px" stroke-linejoin="round" stroke="#f4402c" fill="none" id="svg_1" y="1" x="1" width="62" ry="2" rx="2" height="62" class="cls-1"/>
  <line stroke-width="2px" stroke-linejoin="round" stroke="#f4402c" fill="none" id="svg_2" y2="9" y1="9" x2="63" x1="1" class="cls-1"/>
  <line stroke-width="2px" stroke-linejoin="round" stroke="#f4402c" fill="none" id="svg_3" y2="5" y1="5" x2="6" x1="4" class="cls-1"/>
  <line stroke-width="2px" stroke-linejoin="round" stroke="#f4402c" fill="none" id="svg_4" y2="5" y1="5" x2="10" x1="8" class="cls-1"/>
  <line stroke-width="2px" stroke-linejoin="round" stroke="#f4402c" fill="none" id="svg_5" y2="5" y1="5" x2="60" x1="58" class="cls-1"/>
  <line stroke-width="2px" stroke-linejoin="round" stroke="#f4402c" fill="none" id="svg_6" y2="38" y1="38" x2="28" x1="10" class="cls-1"/>
  <rect stroke-width="2px" stroke-linejoin="round" stroke="#f4402c" fill="none" id="svg_7" y="32" x="27" width="10" ry="1" rx="1" height="8" class="cls-1"/>
  <line stroke-width="2px" stroke-linejoin="round" stroke="#f4402c" fill="none" id="svg_8" y2="38" y1="38" x2="54" x1="37" class="cls-1"/>
  <line stroke-width="2px" stroke-linejoin="round" stroke="#f4402c" fill="none" id="svg_9" y2="34" y1="34" x2="28" x1="10" class="cls-1"/>
  <line stroke-width="2px" stroke-linejoin="round" stroke="#f4402c" fill="none" id="svg_10" y2="34" y1="34" x2="54" x1="37" class="cls-1"/>
  <line stroke-width="2px" stroke-linejoin="round" stroke="#f4402c" fill="none" id="svg_11" y2="32" y1="40" x2="32" x1="32" class="cls-1"/>
  <line stroke-width="2px" stroke-linejoin="round" stroke="#f4402c" fill="none" id="svg_12" y2="20" y1="20" x2="22" x1="10" class="cls-1"/>
  <rect stroke-width="2px" stroke-linejoin="round" stroke="#f4402c" fill="none" id="svg_13" y="14" x="22" width="10" ry="1" rx="1" height="8" class="cls-1"/>
  <line stroke-width="2px" stroke-linejoin="round" stroke="#f4402c" fill="none" id="svg_14" y2="20" y1="20" x2="54" x1="32" class="cls-1"/>
  <line stroke-width="2px" stroke-linejoin="round" stroke="#f4402c" fill="none" id="svg_15" y2="14" y1="22" x2="27" x1="27" class="cls-1"/>
  <line stroke-width="2px" stroke-linejoin="round" stroke="#f4402c" fill="none" id="svg_16" y2="16" y1="16" x2="22" x1="10" class="cls-1"/>
  <line stroke-width="2px" stroke-linejoin="round" stroke="#f4402c" fill="none" id="svg_17" y2="56" y1="56" x2="10" x1="20" class="cls-1"/>
  <rect stroke-width="2px" stroke-linejoin="round" stroke="#f4402c" fill="none" id="svg_18" y="50" x="20" width="10" ry="1" rx="1" height="8" class="cls-1"/>
  <line stroke-width="2px" stroke-linejoin="round" stroke="#f4402c" fill="none" id="svg_19" y2="16" y1="16" x2="32" x1="54" class="cls-1"/>
  <line stroke-width="2px" stroke-linejoin="round" stroke="#f4402c" fill="none" id="svg_20" y2="56" y1="56" x2="54" x1="30" class="cls-1"/>
  <line stroke-width="2px" stroke-linejoin="round" stroke="#f4402c" fill="none" id="svg_21" y2="52" y1="52" x2="20" x1="10" class="cls-1"/>
  <line stroke-width="2px" stroke-linejoin="round" stroke="#f4402c" fill="none" id="svg_22" y2="52" y1="52" x2="54" x1="30" class="cls-1"/>
  <line stroke-width="2px" stroke-linejoin="round" stroke="#f4402c" fill="none" id="svg_23" y2="50" y1="58" x2="25" x1="25" class="cls-1"/>
  <line stroke-width="2px" stroke-linejoin="round" stroke="#f4402c" fill="none" id="svg_24" y2="33" y1="35" x2="57" x1="57" class="cls-1"/>
  <line stroke-width="2px" stroke-linejoin="round" stroke="#f4402c" fill="none" id="svg_25" y2="37" y1="39" x2="57" x1="57" class="cls-1"/>
  <line stroke-width="2px" stroke-linejoin="round" stroke="#f4402c" fill="none" id="svg_26" y2="51" y1="53" x2="7" x1="7" class="cls-1"/>
  <line stroke-width="2px" stroke-linejoin="round" stroke="#f4402c" fill="none" id="svg_27" y2="55" y1="57" x2="7" x1="7" class="cls-1"/>
  <line stroke-width="2px" stroke-linejoin="round" stroke="#f4402c" fill="none" id="svg_28" y2="15" y1="17" x2="7" x1="7" class="cls-1"/>
  <line stroke-width="2px" stroke-linejoin="round" stroke="#f4402c" fill="none" id="svg_29" y2="19" y1="21" x2="7" x1="7" class="cls-1"/>
  <line stroke-width="2px" stroke-linejoin="round" stroke="#f4402c" fill="none" id="svg_30" y2="15" y1="17" x2="57" x1="57" class="cls-1"/>
  <line stroke-width="2px" stroke-linejoin="round" stroke="#f4402c" fill="none" id="svg_31" y2="19" y1="21" x2="57" x1="57" class="cls-1"/>
  <line stroke-width="2px" stroke-linejoin="round" stroke="#f4402c" fill="none" id="svg_32" y2="51" y1="53" x2="57" x1="57" class="cls-1"/>
  <line stroke-width="2px" stroke-linejoin="round" stroke="#f4402c" fill="none" id="svg_33" y2="55" y1="57" x2="57" x1="57" class="cls-1"/>
  <line stroke-width="2px" stroke-linejoin="round" stroke="#f4402c" fill="none" id="svg_34" y2="33" y1="35" x2="7" x1="7" class="cls-1"/>
  <line stroke-width="2px" stroke-linejoin="round" stroke="#f4402c" fill="none" id="svg_35" y2="37" y1="39" x2="7" x1="7" class="cls-1"/>
 </g>
</svg>