<svg width="64" height="64" xmlns="http://www.w3.org/2000/svg">

 <title/>
 <g>
  <title>background</title>
  <rect fill="none" id="canvas_background" height="402" width="582" y="-1" x="-1"/>
 </g>
 <g>
  <title stroke="#31bc35">Layer 1</title>
  <path stroke-width="2px" stroke-linejoin="round" stroke="#31bc35" fill="none" id="svg_1" d="m11,39l0,22a2,2 0 0 0 2,2l34,0a2,2 0 0 0 2,-2l0,-5" class="cls-1"/>
  <path stroke-width="2px" stroke-linejoin="round" stroke="#31bc35" fill="none" id="svg_2" d="m49,22l0,-6l-3,-4l-10,0a6,6 0 0 0 -12,0l-2,0" class="cls-1"/>
  <circle stroke-width="2px" stroke-linejoin="round" stroke="#31bc35" fill="none" id="svg_3" r="2" cy="12" cx="30" class="cls-1"/>
  <path stroke-width="2px" stroke-linejoin="round" stroke="#31bc35" fill="none" id="svg_4" d="m30,6l0,-3a1.959,1.959 0 0 1 2,-2l7,0a1.959,1.959 0 0 1 2,2l0,2a1.959,1.959 0 0 0 2,2l5,0" class="cls-1"/>
  <path stroke-width="2px" stroke-linejoin="round" stroke="#31bc35" fill="none" id="svg_5" d="m55,31l-20,0l0,6l4,0l0,9a1,1 0 0 0 1,1l10,0a1,1 0 0 0 1,-1l0,-9l4,0l0,-6z" class="cls-1"/>
  <line stroke-width="2px" stroke-linejoin="round" stroke="#31bc35" fill="none" id="svg_6" y2="39" y1="39" x2="51" x1="39" class="cls-1"/>
  <line stroke-width="2px" stroke-linejoin="round" stroke="#31bc35" fill="none" id="svg_7" y2="43" y1="43" x2="51" x1="39" class="cls-1"/>
  <path stroke-width="2px" stroke-linejoin="round" stroke="#31bc35" fill="none" id="svg_8" d="m48,31a3,3 0 0 1 -6,0" class="cls-1"/>
  <circle stroke-width="2px" stroke-linejoin="round" stroke="#31bc35" fill="none" id="svg_9" r="18" cy="39" cx="45" class="cls-1"/>
  <circle stroke-width="2px" stroke-linejoin="round" stroke="#31bc35" fill="none" id="svg_10" r="12" cy="24" cx="13" class="cls-1"/>
  <line stroke-width="2px" stroke-linejoin="round" stroke="#31bc35" fill="none" id="svg_11" y2="18" y1="30" x2="19" x1="7" class="cls-1"/>
  <circle stroke-width="2px" stroke-linejoin="round" stroke="#31bc35" fill="none" id="svg_12" r="2" cy="20" cx="9" class="cls-1"/>
  <circle stroke-width="2px" stroke-linejoin="round" stroke="#31bc35" fill="none" id="svg_13" r="2" cy="28" cx="17" class="cls-1"/>
  <path stroke-width="2px" stroke-linejoin="round" stroke="#31bc35" fill="none" id="svg_14" d="m15,39l0,19a1,1 0 0 0 1,1l4,0a1,1 0 0 0 1,-1l0,-20" class="cls-1"/>
  <line stroke-width="2px" stroke-linejoin="round" stroke="#31bc35" fill="none" id="svg_15" y2="58" y1="60" x2="25" x1="25" class="cls-1"/>
  <line stroke-width="2px" stroke-linejoin="round" stroke="#31bc35" fill="none" id="svg_16" y2="48" y1="56" x2="25" x1="25" class="cls-1"/>
  <line stroke-width="2px" stroke-linejoin="round" stroke="#31bc35" fill="none" id="svg_17" y2="53" y1="60" x2="29" x1="29" class="cls-1"/>
 </g>
</svg>