<svg width="64" height="64" xmlns="http://www.w3.org/2000/svg">

 <title/>
 <g>
  <title>background</title>
  <rect fill="none" id="canvas_background" height="402" width="582" y="-1" x="-1"/>
 </g>
 <g>
  <title stroke="#a245d1">Layer 1</title>
  <path stroke-width="2px" stroke-linejoin="round" stroke="#a245d1" fill="none" id="svg_1" d="m63,45l0,16a2,2 0 0 1 -2,2l-58,0a2,2 0 0 1 -2,-2l0,-16l62,0z" class="cls-1"/>
  <polyline stroke-width="2px" stroke-linejoin="round" stroke="#a245d1" fill="none" id="svg_2" points="3 45 3 39 5 37 59 37 61 39 61 45" class="cls-1"/>
  <path stroke-width="2px" stroke-linejoin="round" stroke="#a245d1" fill="none" id="svg_3" d="m59,37l0,-23a1.959,1.959 0 0 0 -2,-2l-3,0" class="cls-1"/>
  <path stroke-width="2px" stroke-linejoin="round" stroke="#a245d1" fill="none" id="svg_4" d="m5,37l0,-23a1.959,1.959 0 0 1 2,-2l3,0" class="cls-1"/>
  <rect stroke-width="2px" stroke-linejoin="round" stroke="#a245d1" fill="none" id="svg_5" y="1" x="26" width="28" ry="1" rx="1" height="14" class="cls-1"/>
  <rect stroke-width="2px" stroke-linejoin="round" stroke="#a245d1" fill="none" id="svg_6" y="5" x="30" width="20" height="6" class="cls-1"/>
  <polyline stroke-width="2px" stroke-linejoin="round" stroke="#a245d1" fill="none" id="svg_7" points="1 49 25 49 26 53 38 53 39 49 63 49" class="cls-1"/>
  <line stroke-width="2px" stroke-linejoin="round" stroke="#a245d1" fill="none" id="svg_8" y2="49" y1="49" x2="36" x1="28" class="cls-1"/>
  <polyline stroke-width="2px" stroke-linejoin="round" stroke="#a245d1" fill="none" id="svg_9" points="26 24 30 24 30 20 26 20" class="cls-1"/>
  <rect stroke-width="2px" stroke-linejoin="round" stroke="#a245d1" fill="none" id="svg_10" y="20" x="34" width="4" height="4" class="cls-1"/>
  <rect stroke-width="2px" stroke-linejoin="round" stroke="#a245d1" fill="none" id="svg_11" y="20" x="42" width="4" height="4" class="cls-1"/>
  <rect stroke-width="2px" stroke-linejoin="round" stroke="#a245d1" fill="none" id="svg_12" y="28" x="42" width="4" height="4" class="cls-1"/>
  <rect stroke-width="2px" stroke-linejoin="round" stroke="#a245d1" fill="none" id="svg_13" y="28" x="34" width="4" height="4" class="cls-1"/>
  <rect stroke-width="2px" stroke-linejoin="round" stroke="#a245d1" fill="none" id="svg_14" y="28" x="26" width="4" height="4" class="cls-1"/>
  <line stroke-width="2px" stroke-linejoin="round" stroke="#a245d1" fill="none" id="svg_15" y2="41" y1="41" x2="8" x1="6" class="cls-1"/>
  <line stroke-width="2px" stroke-linejoin="round" stroke="#a245d1" fill="none" id="svg_16" y2="41" y1="41" x2="58" x1="56" class="cls-1"/>
  <line stroke-width="2px" stroke-linejoin="round" stroke="#a245d1" fill="none" id="svg_17" y2="41" y1="41" x2="54" x1="10" class="cls-1"/>
  <rect stroke-width="2px" stroke-linejoin="round" stroke="#a245d1" fill="none" id="svg_18" y="5" x="10" width="12" height="15" class="cls-1"/>
  <line stroke-width="2px" stroke-linejoin="round" stroke="#a245d1" fill="none" id="svg_19" y2="12" y1="12" x2="26" x1="22" class="cls-1"/>
  <rect stroke-width="2px" stroke-linejoin="round" stroke="#a245d1" fill="none" id="svg_20" y="24" x="10" width="12" height="8" class="cls-1"/>
  <rect stroke-width="2px" stroke-linejoin="round" stroke="#a245d1" fill="none" id="svg_21" y="19" x="50" width="4" height="13" class="cls-1"/>
  <line stroke-width="2px" stroke-linejoin="round" stroke="#a245d1" fill="none" id="svg_22" y2="20" y1="20" x2="24" x1="8" class="cls-1"/>
  <line stroke-width="2px" stroke-linejoin="round" stroke="#a245d1" fill="none" id="svg_23" y2="28" y1="28" x2="22" x1="10" class="cls-1"/>
  <line stroke-width="2px" stroke-linejoin="round" stroke="#a245d1" fill="none" id="svg_24" y2="9" y1="9" x2="19" x1="13" class="cls-1"/>
  <line stroke-width="2px" stroke-linejoin="round" stroke="#a245d1" fill="none" id="svg_25" y2="13" y1="13" x2="15" x1="13" class="cls-1"/>
  <line stroke-width="2px" stroke-linejoin="round" stroke="#a245d1" fill="none" id="svg_26" y2="13" y1="13" x2="19" x1="17" class="cls-1"/>
  <path stroke-width="2px" stroke-linejoin="round" stroke="#a245d1" fill="none" id="svg_27" d="m5,55l0,3a0.979,0.979 0 0 0 1,1l3,0" class="cls-1"/>
 </g>
</svg>