<svg width="64" height="64" xmlns="http://www.w3.org/2000/svg">

 <title/>
 <g>
  <title>background</title>
  <rect fill="none" id="canvas_background" height="402" width="582" y="-1" x="-1"/>
 </g>
 <g>
  <title stroke="#d23a4d">Layer 1</title>
  <rect stroke-width="2px" stroke-linejoin="round" stroke="#d23a4d" fill="none" id="svg_29" y="1" x="1" width="62" ry="2" rx="2" height="62" class="cls-1"/>
  <line stroke="#d23a4d" stroke-width="2px" stroke-linejoin="round" fill="none" id="svg_10" y2="41.975678" y1="41.975678" x2="63" x1="31.21751" class="cls-1"/>
  <line stroke-width="2px" stroke-linejoin="round" stroke="#d23a4d" fill="none" id="svg_24" y2="48.180542" y1="48.180542" x2="40.756776" x1="38.756776" class="cls-1"/>
  <line stroke-width="2px" stroke-linejoin="round" stroke="#d23a4d" fill="none" id="svg_25" y2="56.180542" y1="56.180542" x2="40.756776" x1="38.756776" class="cls-1"/>
  <line stroke="#d23a4d" stroke-width="2px" stroke-linejoin="round" fill="none" id="svg_26" y2="48.180542" y1="48.180542" x2="46.600557" x1="42.756777" class="cls-1"/>
  <line stroke="#d23a4d" stroke-width="2px" stroke-linejoin="round" fill="none" id="svg_27" y2="52.180542" y1="52.180542" x2="56.131898" x1="38.756777" class="cls-1"/>
  <line stroke="#d23a4d" stroke-width="2px" stroke-linejoin="round" fill="none" id="svg_28" y2="56.180542" y1="56.180542" x2="54.185686" x1="42.756777" class="cls-1"/>
  <line stroke-width="2px" stroke-linejoin="round" stroke="#d23a4d" fill="none" id="svg_30" y2="9" y1="9" x2="63" x1="1" class="cls-1"/>
  <line stroke-width="2px" stroke-linejoin="round" stroke="#d23a4d" fill="none" id="svg_31" y2="5" y1="5" x2="6" x1="4" class="cls-1"/>
  <line stroke-width="2px" stroke-linejoin="round" stroke="#d23a4d" fill="none" id="svg_32" y2="5" y1="5" x2="10" x1="8" class="cls-1"/>
  <line stroke-width="2px" stroke-linejoin="round" stroke="#d23a4d" fill="none" id="svg_33" y2="5" y1="5" x2="60" x1="58" class="cls-1"/>
  <g stroke="null" id="svg_34">
   <path stroke="#d23a4d" stroke-width="2px" stroke-linejoin="round" fill="none" id="svg_1" d="m43.606417,14.381088l-23.212833,0l0,6.96385l4.642567,0l0,10.445775a1.160642,1.160642 0 0 0 1.160642,1.160642l11.606417,0a1.160642,1.160642 0 0 0 1.160642,-1.160642l0,-10.445775l4.642567,0l0,-6.96385z" class="cls-1"/>
   <line stroke="#d23a4d" stroke-width="2px" stroke-linejoin="round" fill="none" id="svg_2" y2="23.666222" y1="23.666222" x2="38.96385" x1="25.03615" class="cls-1"/>
   <line stroke="#d23a4d" stroke-width="2px" stroke-linejoin="round" fill="none" id="svg_3" y2="28.308789" y1="28.308789" x2="38.96385" x1="25.03615" class="cls-1"/>
   <path stroke="#d23a4d" stroke-width="2px" stroke-linejoin="round" fill="none" id="svg_4" d="m35.481925,14.381088a3.481925,3.481925 0 0 1 -6.96385,0" class="cls-1"/>
   <path stroke="#d23a4d" stroke-width="2px" stroke-linejoin="round" fill="none" id="svg_5" d="m41.363039,32.951355l10.445775,0a1.160642,1.160642 0 0 0 1.160642,-1.160642l0,-10.445775l4.642567,0l0,-6.96385l-11.606417,0" class="cls-1"/>
   <line stroke="#d23a4d" stroke-width="2px" stroke-linejoin="round" fill="none" id="svg_6" y2="23.666222" y1="23.666222" x2="52.969456" x1="44.844964" class="cls-1"/>
   <line stroke="#d23a4d" stroke-width="2px" stroke-linejoin="round" fill="none" id="svg_7" y2="28.308789" y1="28.308789" x2="52.969456" x1="41.363039" class="cls-1"/>
   <path stroke="#d23a4d" stroke-width="2px" stroke-linejoin="round" fill="none" id="svg_8" d="m49.487531,14.381088a3.481925,3.481925 0 0 1 -3.481925,3.481925" class="cls-1"/>
   <path stroke="#d23a4d" stroke-width="2px" stroke-linejoin="round" fill="none" id="svg_11" d="m22.636961,32.951355l-10.445775,0a1.160642,1.160642 0 0 1 -1.160642,-1.160642l0,-10.445775l-4.642567,0l0,-6.96385l11.606417,0" class="cls-1"/>
   <line stroke="#d23a4d" stroke-width="2px" stroke-linejoin="round" fill="none" id="svg_12" y2="23.666222" y1="23.666222" x2="11.030545" x1="19.155036" class="cls-1"/>
   <line stroke="#d23a4d" stroke-width="2px" stroke-linejoin="round" fill="none" id="svg_13" y2="28.308789" y1="28.308789" x2="11.030545" x1="22.636961" class="cls-1"/>
   <path stroke="#d23a4d" stroke-width="2px" stroke-linejoin="round" fill="none" id="svg_14" d="m14.51247,14.381088a3.481925,3.481925 0 0 0 3.481925,3.481925" class="cls-1"/>
  </g>
  <ellipse ry="11.369979" rx="11.369979" id="svg_36" cy="48.440374" cx="15.252329" fill-opacity="null" stroke-width="2px" stroke="#d23a4d" fill="none"/>
  <g id="svg_39">
   <line stroke-linecap="null" stroke-linejoin="round" id="svg_37" y2="55.252117" x2="15.252329" y1="41.628629" x1="15.252329" fill-opacity="null" stroke-width="2px" stroke="#d23a4d" fill="none"/>
   <line transform="rotate(90 15.252328872680659,48.44037246704102) " stroke-linecap="null" stroke-linejoin="round" id="svg_38" y2="55.252117" x2="15.252329" y1="41.628629" x1="15.252329" fill-opacity="null" stroke-width="2px" stroke="#d23a4d" fill="none"/>
  </g>
  <g id="svg_43">
   <ellipse ry="1.075539" rx="1.075539" id="svg_40" cy="36.507018" cx="28.517304" stroke-width="2px" fill="#d23a4d"/>
   <ellipse ry="1.075539" rx="1.075539" id="svg_41" cy="36.507018" cx="31.590271" stroke-width="2px" fill="#d23a4d"/>
   <ellipse ry="1.075539" rx="1.075539" id="svg_42" cy="36.507018" cx="34.663238" stroke-width="2px" fill="#d23a4d"/>
  </g>
 </g>
</svg>