<svg width="64" height="64" xmlns="http://www.w3.org/2000/svg">

 <title/>
 <g>
  <title>background</title>
  <rect fill="none" id="canvas_background" height="402" width="582" y="-1" x="-1"/>
 </g>
 <g>
  <title stroke="#5630a8">Layer 1</title>
  <path stroke-width="2px" stroke-linejoin="round" stroke="#5630a8" fill="none" id="svg_1" d="m47,55a8,8 0 0 1 -8,8l-30,0a8,8 0 0 1 -8,-8l30,0a8,8 0 0 0 8,8" class="cls-1"/>
  <path stroke-width="2px" stroke-linejoin="round" stroke="#5630a8" fill="none" id="svg_2" d="m55,1a8,8 0 0 0 -8,8l0,46" class="cls-1"/>
  <path stroke-width="2px" stroke-linejoin="round" stroke="#5630a8" fill="none" id="svg_3" d="m7,55l0,-46a8,8 0 0 1 8,-8l40,0a8,8 0 0 1 8,8l-16,0" class="cls-1"/>
  <rect stroke-width="2px" stroke-linejoin="round" stroke="#5630a8" fill="none" id="svg_4" y="28" x="15" width="6" height="6" class="cls-1"/>
  <rect stroke-width="2px" stroke-linejoin="round" stroke="#5630a8" fill="none" id="svg_5" y="39" x="15" width="6" height="6" class="cls-1"/>
  <line stroke-width="2px" stroke-linejoin="round" stroke="#5630a8" fill="none" id="svg_6" y2="29" y1="29" x2="27" x1="25" class="cls-1"/>
  <line stroke-width="2px" stroke-linejoin="round" stroke="#5630a8" fill="none" id="svg_7" y2="29" y1="29" x2="31" x1="29" class="cls-1"/>
  <line stroke-width="2px" stroke-linejoin="round" stroke="#5630a8" fill="none" id="svg_8" y2="33" y1="33" x2="39" x1="25" class="cls-1"/>
  <line stroke-width="2px" stroke-linejoin="round" stroke="#5630a8" fill="none" id="svg_9" y2="40" y1="40" x2="27" x1="25" class="cls-1"/>
  <line stroke-width="2px" stroke-linejoin="round" stroke="#5630a8" fill="none" id="svg_10" y2="40" y1="40" x2="31" x1="29" class="cls-1"/>
  <line stroke-width="2px" stroke-linejoin="round" stroke="#5630a8" fill="none" id="svg_11" y2="44" y1="44" x2="39" x1="25" class="cls-1"/>
  <line stroke-width="2px" stroke-linejoin="round" stroke="#5630a8" fill="none" id="svg_12" y2="50" y1="50" x2="43" x1="11" class="cls-1"/>
  <rect stroke-width="2px" stroke-linejoin="round" stroke="#5630a8" fill="none" id="svg_13" y="10" x="15" width="14" ry="1" rx="1" height="13" class="cls-1"/>
  <path stroke-width="2px" stroke-linejoin="round" stroke="#5630a8" fill="none" id="svg_14" d="m19,14l0,-7a0.979,0.979 0 0 1 1,-1l4,0a0.979,0.979 0 0 1 1,1l0,7" class="cls-1"/>
  <line stroke-width="2px" stroke-linejoin="round" stroke="#5630a8" fill="none" id="svg_15" y2="19" y1="19" x2="29" x1="15" class="cls-1"/>
  <polyline stroke-width="2px" stroke-linejoin="round" stroke="#5630a8" fill="none" id="svg_16" points="32 10 40 10 40 14 32 14" class="cls-1"/>
  <line stroke-width="2px" stroke-linejoin="round" stroke="#5630a8" fill="none" id="svg_17" y2="18" y1="18" x2="41" x1="32" class="cls-1"/>
  <line stroke-width="2px" stroke-linejoin="round" stroke="#5630a8" fill="none" id="svg_18" y2="22" y1="22" x2="35" x1="41" class="cls-1"/>
 </g>
</svg>