<svg width="64" height="64" xmlns="http://www.w3.org/2000/svg">

 <title/>
 <g>
  <title>background</title>
  <rect fill="none" id="canvas_background" height="66" width="66" y="-1" x="-1"/>
 </g>
 <g>
  <title>Layer 1</title>
  <rect opacity="0.23" id="svg_33" height="40.265634" width="43.41397" y="25.198271" x="23.462351" stroke-width="2px" fill="#115f93"/>
  <path stroke-width="2px" stroke-linejoin="round" stroke="#115f93" fill="none" id="svg_15" d="m47,59l0,-24l-9,0l0,-2a1,1 0 0 0 -1,-1l-8,0a1,1 0 0 0 -1,1l0,2l-9,0l0,24l4,0" class="cls-1"/>
  <path stroke="#115f93" stroke-width="2px" stroke-linejoin="round" fill="none" id="svg_1" d="m63,44l0,-39a4,4 0 0 0 -4,-4l-54,0a4,4 0 0 0 -4,4l0,54a4,4 0 0 0 4,4l15,0" class="cls-1"/>
  <rect stroke-width="2px" stroke-linejoin="round" stroke="#115f93" fill="none" id="svg_2" y="1" x="23" width="18" height="22" class="cls-1"/>
  <line stroke-width="2px" stroke-linejoin="round" stroke="#115f93" fill="none" id="svg_3" y2="18" y1="18" x2="41" x1="23" class="cls-1"/>
  <line stroke-width="2px" stroke-linejoin="round" stroke="#115f93" fill="none" id="svg_4" y2="7" y1="7" x2="23" x1="1" class="cls-1"/>
  <line stroke-width="2px" stroke-linejoin="round" stroke="#115f93" fill="none" id="svg_5" y2="7" y1="7" x2="41" x1="63" class="cls-1"/>
  <polyline stroke-width="2px" stroke-linejoin="round" stroke="#115f93" fill="none" id="svg_6" points="47 41 55 41 63 49 63 59 59 59" class="cls-1"/>
  <circle stroke-width="2px" stroke-linejoin="round" stroke="#115f93" fill="none" id="svg_7" r="4" cy="59" cx="55" class="cls-1"/>
  <circle stroke-width="2px" stroke-linejoin="round" stroke="#115f93" fill="none" id="svg_8" r="4" cy="59" cx="27" class="cls-1"/>
  <line stroke-width="2px" stroke-linejoin="round" stroke="#115f93" fill="none" id="svg_9" y2="59" y1="59" x2="31" x1="51" class="cls-1"/>
  <line stroke-width="2px" stroke-linejoin="round" stroke="#115f93" fill="none" id="svg_12" y2="55" y1="55" x2="33" x1="47" class="cls-1"/>
  <path stroke-width="2px" stroke-linejoin="round" stroke="#115f93" fill="none" id="svg_13" d="m47,46s1,3 3,3l13,0" class="cls-1"/>
  <line stroke-width="2px" stroke-linejoin="round" stroke="#115f93" fill="none" id="svg_14" y2="51" y1="51" x2="47" x1="19" class="cls-1"/>
  <line stroke-width="2px" stroke-linejoin="round" stroke="#115f93" fill="none" id="svg_16" y2="35" y1="35" x2="35" x1="28" class="cls-1"/>
  <polyline stroke-width="2px" stroke-linejoin="round" stroke="#115f93" fill="none" id="svg_17" points="9 11 5 11 5 15" class="cls-1"/>
  <polyline stroke-width="2px" stroke-linejoin="round" stroke="#115f93" fill="none" id="svg_18" points="59 15 59 11 55 11" class="cls-1"/>
  <line stroke-width="2px" stroke-linejoin="round" stroke="#115f93" fill="none" id="svg_19" y2="55" y1="55" x2="8" x1="16" class="cls-1"/>
  <line stroke-width="2px" stroke-linejoin="round" stroke="#115f93" fill="none" id="svg_20" y2="50" y1="50" x2="6" x1="12" class="cls-1"/>
  <line stroke-width="2px" stroke-linejoin="round" stroke="#115f93" fill="none" id="svg_21" y2="45" y1="45" x2="12" x1="16" class="cls-1"/>
  <line stroke-width="2px" stroke-linejoin="round" stroke="#115f93" fill="none" id="svg_22" y2="50" y1="50" x2="14" x1="16" class="cls-1"/>
  <line stroke-width="2px" stroke-linejoin="round" stroke="#115f93" fill="none" id="svg_23" y2="45" y1="45" x2="8" x1="10" class="cls-1"/>
  <circle stroke-width="2px" stroke-linejoin="round" stroke="#115f93" fill="none" id="svg_24" r="4" cy="43" cx="33" class="cls-1"/>
  <line stroke-width="2px" stroke-linejoin="round" stroke="#115f93" fill="none" id="svg_25" y2="40" y1="46" x2="36" x1="30" class="cls-1"/>
  <ellipse stroke="#115f93" ry="1.001372" rx="1.001372" id="svg_31" cy="59" cx="54.999998" fill-opacity="null" stroke-width="NaN" fill="#115f93"/>
  <ellipse stroke="#115f93" ry="1.001372" rx="1.001372" id="svg_28" cy="58.999999" cx="27" fill-opacity="null" stroke-width="NaN" fill="#115f93"/>
 </g>
</svg>
