<svg width="64" height="64" xmlns="http://www.w3.org/2000/svg">
 <title/>

 <g>
  <title>background</title>
  <rect x="-1" y="-1" width="66" height="66" id="canvas_background" fill="none"/>
 </g>
 <g>
  <title>Layer 1</title>
  <path class="cls-1" d="m47,59l0,-24l-9,0l0,-2a1,1 0 0 0 -1,-1l-8,0a1,1 0 0 0 -1,1l0,2l-9,0l0,24l4,0" id="svg_15" fill="none" stroke="#115f93" stroke-linejoin="round" stroke-width="2px"/>
  <path class="cls-1" d="m63,44l0,-39a4,4 0 0 0 -4,-4l-54,0a4,4 0 0 0 -4,4l0,54a4,4 0 0 0 4,4l15,0" id="svg_1" fill="none" stroke-linejoin="round" stroke-width="2px" stroke="#115f93"/>
  <rect class="cls-1" height="22" width="18" x="23" y="1" id="svg_2" fill="none" stroke="#115f93" stroke-linejoin="round" stroke-width="2px"/>
  <line class="cls-1" x1="23" x2="41" y1="18" y2="18" id="svg_3" fill="none" stroke="#115f93" stroke-linejoin="round" stroke-width="2px"/>
  <line class="cls-1" x1="1" x2="23" y1="7" y2="7" id="svg_4" fill="none" stroke="#115f93" stroke-linejoin="round" stroke-width="2px"/>
  <line class="cls-1" x1="63" x2="41" y1="7" y2="7" id="svg_5" fill="none" stroke="#115f93" stroke-linejoin="round" stroke-width="2px"/>
  <polyline class="cls-1" points="47 41 55 41 63 49 63 59 59 59" id="svg_6" fill="none" stroke="#115f93" stroke-linejoin="round" stroke-width="2px"/>
  <circle class="cls-1" cx="55" cy="59" r="4" id="svg_7" fill="none" stroke="#115f93" stroke-linejoin="round" stroke-width="2px"/>
  <circle class="cls-1" cx="27" cy="59" r="4" id="svg_8" fill="none" stroke="#115f93" stroke-linejoin="round" stroke-width="2px"/>
  <line class="cls-1" x1="51" x2="31" y1="59" y2="59" id="svg_9" fill="none" stroke="#115f93" stroke-linejoin="round" stroke-width="2px"/>
  <line class="cls-1" x1="47" x2="33" y1="55" y2="55" id="svg_12" fill="none" stroke="#115f93" stroke-linejoin="round" stroke-width="2px"/>
  <path class="cls-1" d="m47,46s1,3 3,3l13,0" id="svg_13" fill="none" stroke="#115f93" stroke-linejoin="round" stroke-width="2px"/>
  <line class="cls-1" x1="19" x2="47" y1="51" y2="51" id="svg_14" fill="none" stroke="#115f93" stroke-linejoin="round" stroke-width="2px"/>
  <line class="cls-1" x1="28" x2="35" y1="35" y2="35" id="svg_16" fill="none" stroke="#115f93" stroke-linejoin="round" stroke-width="2px"/>
  <polyline class="cls-1" points="9 11 5 11 5 15" id="svg_17" fill="none" stroke="#115f93" stroke-linejoin="round" stroke-width="2px"/>
  <polyline class="cls-1" points="59 15 59 11 55 11" id="svg_18" fill="none" stroke="#115f93" stroke-linejoin="round" stroke-width="2px"/>
  <line class="cls-1" x1="16" x2="8" y1="55" y2="55" id="svg_19" fill="none" stroke="#115f93" stroke-linejoin="round" stroke-width="2px"/>
  <line class="cls-1" x1="12" x2="6" y1="50" y2="50" id="svg_20" fill="none" stroke="#115f93" stroke-linejoin="round" stroke-width="2px"/>
  <line class="cls-1" x1="16" x2="12" y1="45" y2="45" id="svg_21" fill="none" stroke="#115f93" stroke-linejoin="round" stroke-width="2px"/>
  <line class="cls-1" x1="16" x2="14" y1="50" y2="50" id="svg_22" fill="none" stroke="#115f93" stroke-linejoin="round" stroke-width="2px"/>
  <line class="cls-1" x1="10" x2="8" y1="45" y2="45" id="svg_23" fill="none" stroke="#115f93" stroke-linejoin="round" stroke-width="2px"/>
  <ellipse fill="#115f93" stroke-width="NaN" fill-opacity="null" cx="54.999998" cy="59" id="svg_31" rx="1.001372" ry="1.001372" stroke="#115f93"/>
  <ellipse fill="#115f93" stroke-width="NaN" fill-opacity="null" cx="27" cy="58.999999" id="svg_28" rx="1.001372" ry="1.001372" stroke="#115f93"/>
 </g>
</svg>