<svg width="64" height="64" xmlns="http://www.w3.org/2000/svg">

 <title/>
 <g>
  <title>background</title>
  <rect fill="none" id="canvas_background" height="402" width="582" y="-1" x="-1"/>
 </g>
 <g>
  <title stroke="#07a207">Layer 1</title>
  <path stroke-width="2px" stroke-linejoin="round" stroke="#07a207" fill="none" id="svg_1" d="m35,63l26,0a2,2 0 0 0 2,-2l0,-58a2,2 0 0 0 -2,-2l-58,0a2,2 0 0 0 -2,2l0,10" class="cls-1"/>
  <line stroke-width="2px" stroke-linejoin="round" stroke="#07a207" fill="none" id="svg_2" y2="9" y1="9" x2="63" x1="1" class="cls-1"/>
  <line stroke-width="2px" stroke-linejoin="round" stroke="#07a207" fill="none" id="svg_3" y2="5" y1="5" x2="6" x1="4" class="cls-1"/>
  <line stroke-width="2px" stroke-linejoin="round" stroke="#07a207" fill="none" id="svg_4" y2="5" y1="5" x2="10" x1="8" class="cls-1"/>
  <line stroke-width="2px" stroke-linejoin="round" stroke="#07a207" fill="none" id="svg_5" y2="5" y1="5" x2="60" x1="58" class="cls-1"/>
  <path stroke-width="2px" stroke-linejoin="round" stroke="#07a207" fill="none" id="svg_6" d="m33,24l0,-5a4,4 0 0 0 -4,-4l-24,0a4,4 0 0 0 -4,4l0,40a4,4 0 0 0 4,4l24,0a4,4 0 0 0 4,-4l0,-5" class="cls-1"/>
  <line stroke-width="2px" stroke-linejoin="round" stroke="#07a207" fill="none" id="svg_7" y2="21" y1="21" x2="33" x1="1" class="cls-1"/>
  <line stroke-width="2px" stroke-linejoin="round" stroke="#07a207" fill="none" id="svg_8" y2="57" y1="57" x2="33" x1="1" class="cls-1"/>
  <circle stroke-width="2px" stroke-linejoin="round" stroke="#07a207" fill="none" id="svg_9" r="14" cy="39" cx="42" class="cls-1"/>
  <path stroke-width="2px" stroke-linejoin="round" stroke="#07a207" fill="none" id="svg_10" d="m38,41l0,2a2,2 0 0 0 2,2l4,0a2,2 0 0 0 2,-2l0,-2a2,2 0 0 0 -2,-2l-4,0a2,2 0 0 1 -2,-2l0,-2a2,2 0 0 1 2,-2l4,0a2,2 0 0 1 2,2l0,2" class="cls-1"/>
  <line stroke-width="2px" stroke-linejoin="round" stroke="#07a207" fill="none" id="svg_11" y2="30" y1="33" x2="42" x1="42" class="cls-1"/>
  <line stroke-width="2px" stroke-linejoin="round" stroke="#07a207" fill="none" id="svg_12" y2="45" y1="48" x2="42" x1="42" class="cls-1"/>
  <polyline stroke-width="2px" stroke-linejoin="round" stroke="#07a207" fill="none" id="svg_13" points="55 13 59 13 59 17" class="cls-1"/>
  <path stroke-width="2px" stroke-linejoin="round" stroke="#07a207" fill="none" id="svg_14" d="m29,52c-2.5,0 -2.5,-2 -5,-2s-2.5,2 -5,2s-2.5,-2 -5,-2" class="cls-1"/>
  <path stroke-width="2px" stroke-linejoin="round" stroke="#07a207" fill="none" id="svg_15" d="m25,45c-2.5,0 -2.5,2 -5,2s-2.5,-2 -5,-2" class="cls-1"/>
  <line stroke-width="2px" stroke-linejoin="round" stroke="#07a207" fill="none" id="svg_16" y2="50" y1="50" x2="12" x1="10" class="cls-1"/>
  <line stroke-width="2px" stroke-linejoin="round" stroke="#07a207" fill="none" id="svg_17" y2="45" y1="45" x2="13" x1="11" class="cls-1"/>
  <polyline stroke-width="2px" stroke-linejoin="round" stroke="#07a207" fill="none" id="svg_18" points="29 28 29 25 5 25 5 31 25 31" class="cls-1"/>
  <line stroke-width="2px" stroke-linejoin="round" stroke="#07a207" fill="none" id="svg_19" y2="36" y1="36" x2="6" x1="4" class="cls-1"/>
  <line stroke-width="2px" stroke-linejoin="round" stroke="#07a207" fill="none" id="svg_20" y2="36" y1="36" x2="10" x1="8" class="cls-1"/>
  <line stroke-width="2px" stroke-linejoin="round" stroke="#07a207" fill="none" id="svg_21" y2="36" y1="36" x2="25" x1="12" class="cls-1"/>
  <line stroke-width="2px" stroke-linejoin="round" stroke="#07a207" fill="none" id="svg_22" y2="40" y1="40" x2="25" x1="4" class="cls-1"/>
 </g>
</svg>